<svg t="1614424852962" class="icon" viewBox="0 0 1024 1024" version="1.1" xmlns="http://www.w3.org/2000/svg" p-id="1541" width="200" height="200"><path d="M487.04 174.08l-426.666667 213.333333a32 32 0 0 0 0 57.173334l426.666667 213.333333a32 32 0 0 0 28.586667 0l426.666666-213.333333a32 32 0 0 0 0-57.173334l-426.666666-213.333333a32 32 0 0 0-28.586667 0z m14.293333 64.341333l355.114667 177.578667-355.114667 177.536L146.176 416l355.157333-177.578667z" fill="#9C9C9C" p-id="1542"></path><path d="M234.666667 458.666667v281.728l0.938666 0.426666c93.866667 43.818667 177.621333 66.858667 251.136 69.546667l14.592 0.298667c72.192 0 154.581333-20.309333 247.04-61.354667l19.626667-8.96V458.666667h64v301.909333a32 32 0 0 1-17.92 28.757333c-116.053333 56.704-220.16 85.333333-312.746667 85.333334s-196.693333-28.629333-312.746666-85.333334a32 32 0 0 1-17.578667-24.234666L170.666667 760.576V458.666667h64z" fill="#9C9C9C" p-id="1543"></path></svg>